# AST/ASF file generated using VICON BodyLanguage
# -----------------------------------------------
:version 1.10
:name VICON
:units
  mass 1.0
  length 0.45
  angle deg
:documentation
   .ast/.asf automatically generated from VICON data using
   VICON BodyBuilder and BodyLanguage model FoxedUp or BRILLIANT.MOD
:root
   order TX TY TZ RX RY RZ
   axis XYZ
   position 0 0 0  
   orientation 0 0 0 
:bonedata
  begin
     id 1 
     name lhipjoint
     direction 0.707368 -0.647095 0.284426 
     length 2.60678 
     axis 0 0 0  XYZ
  end
  begin
     id 2 
     name lfemur
     direction 0.34202 -0.939693 0  
     length 6.63812  
     axis 0 0 20  XYZ
    dof rx ry rz
    limits (-160.0 20.0)
           (-70.0 70.0)
           (-60.0 70.0)
  end
  begin
     id 3 
     name ltibia
     direction 0.34202 -0.939693 0   
     length 7.51178   
     axis 0 0 20   XYZ
    dof rx
    limits (-10.0 170.0)
  end
  begin
     id 4 
     name lfoot
     direction 0.121251 -0.333133 0.935051   
     length 1.83716   
     axis -90 7.62852e-016 20   XYZ
    dof rx rz
    limits (-45.0 90.0)
           (-70.0 20.0)
  end
  begin
     id 5 
     name ltoes
     direction 1.53611e-011 -4.21962e-011 1   
     length 0.916133   
     axis -90 7.62852e-016 20   XYZ
    dof rx
    limits (-90.0 20.0)
  end
  begin
     id 6 
     name rhipjoint
     direction -0.692419 -0.660507 0.290321   
     length 2.55385  
     axis 0 0 0  XYZ 
  end
  begin
     id 7 
     name rfemur
     direction -0.34202 -0.939693 0   
     length 7.29079   
     axis 0 0 -20   XYZ
    dof rx ry rz
    limits (-160.0 20.0)
           (-70.0 70.0)
           (-70.0 60.0)
  end
  begin
     id 8 
     name rtibia
     direction -0.34202 -0.939693 0   
     length 7.47143   
     axis 0 0 -20   XYZ
    dof rx
    limits (-10.0 170.0)
 end
 begin
     id 9 
     name rfoot
     direction -0.119907 -0.329441 0.936532   
     length 1.79439  
     axis -90 -7.62852e-016 -20   XYZ
    dof rx rz
    limits (-45.0 90.0)
           (-20.0 70.0)
  end
  begin
     id 10 
     name rtoes
     direction -1.53571e-011 -4.21961e-011 1   
     length 0.896039   
     axis -90 -7.62852e-016 -20   XYZ
    dof rx
    limits (-90.0 20.0)
  end
  begin
     id 11 
     name lowerback
     direction 0.0367721 0.992912 -0.113016   
     length 1.73542   
     axis 0 0 0   XYZ
    dof rx ry rz
    limits (-20.0 45.0)
           (-30.0 30.0)
           (-30.0 30.0)
  end
  begin
     id 12 
     name upperback
     direction -0.000314626 0.990678 0.136227   
     length 1.7514   
     axis 0 0 0   XYZ
    dof rx ry rz
    limits (-20.0 45.0)
           (-30.0 30.0)
           (-30.0 30.0)
  end
  begin
     id 13 
     name thorax
     direction -0.0226159 0.981151 0.191917   
     length 1.71471   
     axis 0 0 0   XYZ
    dof rx ry rz
    limits (-20.0 45.0)
           (-30.0 30.0)
           (-30.0 30.0)
  end
  begin
     id 14 
     name lowerneck
     direction 0.0219333 0.998071 0.0580739   
     length 1.65882   
     axis 0 0 0   XYZ
    dof rx ry rz
    limits (-20.0 45.0)
           (-30.0 30.0)
           (-30.0 30.0)
  end
  begin
     id 15 
     name upperneck
     direction 0.0384529 0.980058 -0.194957   
     length 1.6612   
     axis 0 0 0   XYZ
    dof rx ry rz
    limits (-20.0 45.0)
           (-30.0 30.0)
           (-30.0 30.0)
  end
  begin
     id 16
     name head
     direction 0.00592123 0.997421 -0.0715234  
     length 1.68077  
     axis 0 0 0   XYZ
    dof rx ry rz
    limits (-20.0 45.0)
           (-30.0 30.0)
           (-30.0 30.0)
  end
  begin
     id 17 
     name lclavicle
     direction 0.904803 0.417826 0.0821728  
     length 3.42227  
     axis 0 0 0   XYZ
    dof ry rz
    limits (-20.0 10.0)
           (0.0 20.0)
  end
  begin
     id 18 
     name lhumerus
     direction 1 -4.48965e-011 -2.68786e-027   
     length 5.11878   
     axis -180 -30 -90   XYZ
    dof rx ry rz
    limits (-60.0 90.0)
           (-90.0 90.0)
           (-90.0 90.0)
  end
  begin
     id 19
     name lradius
     direction 1 -4.48965e-011 2.61168e-028   
     length 3.59971   
     axis -180 -30 -90   XYZ
    dof rx
    limits (-10.0 170.0)
  end
  begin
     id 20
     name lwrist
     direction 1 -4.48965e-011 1.58672e-027   
     length 1.79985   
     axis -1.65735e-015 90 90   XYZ
    dof ry
    limits (-180.0 0.0)
 end
  begin
     id 21 
     name lhand
     direction 1 -4.48942e-011 3.17344e-027   
     length 0.62877   
     axis -2.02492e-015 90 90   XYZ
    dof rx rz
    limits (-90.0 90.0)
           (-45.0 45.0)
  end
  begin
     id 22 
     name lfingers
     direction 1 -4.49011e-011 6.34687e-027   
     length 0.506931   
     axis -4.04985e-015 90 90   XYZ
    dof rx
    limits (0.0 90.0)
  end
  begin
     id 23
     name lthumb
     direction 0.707107 -6.34982e-011 0.707107   
     length 0.727854   
     axis -90 45 2.85299e-015   XYZ
    dof rx rz
    limits (-45.0 45.0)
           (-45.0 45.0)
  end
  begin
     id 24 
     name rclavicle
     direction -0.945647 0.32488 0.0143075   
     length 3.52737  
     axis 0 0 0   XYZ 
    dof ry rz
    limits (-10.0 20.0)
           (-20.0 0.0)
  end
  begin
     id 25 
     name rhumerus
     direction -1 -4.48962e-011 1.92182e-027  
     length 5.4902   
     axis -180 30 90   XYZ
    dof rx ry rz
    limits (-90.0 60.0)
           (-90.0 90.0)
           (-90.0 90.0)
  end
  begin
     id 26 
     name rradius
     direction -1 -4.48967e-011 -5.97193e-028   
     length 3.20659   
     axis -180 30 90   XYZ
    dof rx
    limits (-10.0 170.0)
  end
  begin
     id 27 
     name rwrist
     direction -1 -4.48964e-011 1.58672e-027   
     length 1.6033   
     axis -1.65735e-015 -90 -90   XYZ
    dof ry
    limits (-180.0 0.0)
  end
  begin
     id 28
     name rhand
     direction -1 -4.49006e-011 3.17344e-027   
     length 0.691885   
     axis -2.02492e-015 -90 -90   XYZ
    dof rx rz
    limits (-90.0 90.0)
           (-45.0 45.0)
  end
  begin
     id 29
     name rfingers
     direction -1 -4.48908e-011 6.34687e-027   
     length 0.557815   
     axis -4.04985e-015 -90 -90   XYZ
    dof rx
    limits (0.0 90.0)
  end
  begin
     id 30
     name rthumb
     direction -0.707107 -6.34999e-011 0.707107   
     length 0.800915   
     axis -90 -45 -2.85299e-015   XYZ
    dof rx rz
    limits (-45.0 45.0)
           (-45.0 45.0)
  end
:hierarchy
  begin
    root lhipjoint rhipjoint lowerback
    lhipjoint lfemur
    lfemur ltibia
    ltibia lfoot
    lfoot ltoes
    rhipjoint rfemur
    rfemur rtibia
    rtibia rfoot
    rfoot rtoes
    lowerback upperback
    upperback thorax
    thorax lowerneck lclavicle rclavicle
    lowerneck upperneck
    upperneck head
    lclavicle lhumerus
    lhumerus lradius
    lradius lwrist
    lwrist lhand lthumb
    lhand lfingers
    rclavicle rhumerus
    rhumerus rradius
    rradius rwrist
    rwrist rhand rthumb
    rhand rfingers
  end

#!OML:ASF I:\Actors\actors\Patient Classification 1\Patient 1\Session 1\Subject1.ASF
:FULLY-SPECIFIED
:DEGREES
115
root 0.670041 17.4209 8.77972 6.51514 -0.283596 -9.2527
lowerback -2.79021 0.253565 6.72104
upperback -9.26323 0.639095 2.50081
thorax -8.17241 -0.0697715 -1.13317
lowerneck -1.6196 -4.36108 -2.75906
upperneck 25.0213 -7.36504 6.27277
head 8.34143 -3.21751 2.00467
rclavicle 7.10655e-015 -2.3059e-014
rhumerus -10.7485 30.5145 -88.8975
rradius 110.885
rwrist -2.23974
rhand -6.17007 -39.597
rfingers 7.12502
rthumb 19.6689 -68.622
lclavicle 7.10655e-015 -2.3059e-014
lhumerus -12.6597 -26.3612 93.6588
lradius 110.372
lwrist 10.4205
lhand -32.6601 -22.6333
lfingers 7.12502
lthumb -5.88605 7.26491
rfemur -3.47015 22.2021 26.5155
rtibia 5.79521
rfoot -12.7767 -23.6388
rtoes 0.972293
lfemur 6.68791 -43.0043 -11.446
ltibia -4.43373
lfoot -18.6948 49.7569
ltoes 7.60647
116
root 0.672783 17.4207 8.78799 6.30797 -0.581921 -9.21547
lowerback -3.2411 0.192616 6.5103
upperback -8.99215 0.504959 2.68259
thorax -7.61802 -0.0949317 -0.823872
lowerneck -1.3382 -4.28997 -2.36905
upperneck 25.2552 -7.17836 5.65662
head 8.32417 -3.15111 1.75451
rclavicle 6.70898e-016 -1.48095e-014
rhumerus -7.06599 31.2149 -87.2323
rradius 110.638
rwrist -1.18602
rhand -6.72602 -37.9891
rfingers 7.12502
rthumb 19.1343 -67.0678
lclavicle 6.70898e-016 -1.48095e-014
lhumerus -9.66173 -26.0599 92.4968
lradius 110.837
lwrist 10.479
lhand -32.2814 -21.8011
lfingers 7.12502
lthumb -5.52042 8.10701
rfemur -3.35523 22.0268 26.5296
rtibia 6.06023
rfoot -12.7924 -23.2388
rtoes 0.682972
lfemur 7.16302 -42.7905 -11.8511
ltibia -4.41566
lfoot -18.9222 49.7573
ltoes 7.76614
117
root 0.676276 17.4199 8.79859 6.1413 -0.898141 -9.10039
lowerback -3.86963 0.0931846 6.15798
upperback -8.629 0.301204 2.91914
thorax -6.86547 -0.140022 -0.382137
lowerneck -1.99809 -4.18171 -2.24931
upperneck 26.2626 -6.96353 5.05542
head 8.75741 -3.06143 1.53309
rclavicle 1.78658e-014 -4.3186e-014
rhumerus -3.85344 31.9161 -85.8784
rradius 110.528
rwrist 0.325677
rhand -7.37075 -36.8862
rfingers 7.12502
rthumb 18.5142 -66.0251
lclavicle 1.78658e-014 -4.3186e-014
lhumerus -6.72924 -25.5315 91.3983
lradius 111.094
lwrist 10.3658
lhand -31.9189 -21.2347
lfingers 7.12502
lthumb -5.17045 8.68219
rfemur -3.24741 21.9442 26.4425
rtibia 6.26869
rfoot -12.8163 -22.9148
rtoes 0.385642
lfemur 7.66438 -42.7187 -12.3935
ltibia -4.41361
lfoot -19.1808 49.9305
ltoes 8.04176
118
root 0.680811 17.4187 8.80806 6.01608 -1.19634 -9.04247
lowerback -4.06742 0.142151 6.23301
upperback -8.60223 0.344935 2.88503
thorax -6.72095 -0.121233 -0.461312
lowerneck -3.15804 -4.12223 -2.94771
upperneck 28.3133 -7.06404 5.55233
head 9.75646 -3.06924 1.79111
rclavicle 2.59662e-015 -1.83876e-014
rhumerus -2.46555 31.8442 -85.79
rradius 110.542
rwrist 2.39185
rhand -8.10247 -35.8231
rfingers 7.12502
rthumb 17.8102 -65.0275
lclavicle 2.59662e-015 -1.83876e-014
lhumerus -4.58775 -25.5462 90.5101
lradius 111.236
lwrist 10.0093
lhand -32.0308 -21.4518
lfingers 7.12502
lthumb -5.27843 8.46241
rfemur -3.20404 21.8758 26.3972
rtibia 6.47456
rfoot -12.8386 -22.6013
rtoes 0.0439698
lfemur 8.0764 -42.6766 -12.8034
ltibia -4.40533
lfoot -19.5077 50.1088
ltoes 8.37031
119
root 0.685138 17.4173 8.81561 5.91565 -1.43552 -9.10484
lowerback -4.08094 0.281294 6.52178
upperback -8.68488 0.52845 2.7576
thorax -6.79506 -0.0568593 -0.756789
lowerneck -3.81547 -4.23297 -3.4808
upperneck 29.7881 -7.38376 6.00532
head 10.4898 -3.18753 2.00471
rclavicle -1.02126e-014 4.70126e-014
rhumerus -0.635889 32.1517 -85.13
rradius 110.593
rwrist 3.80214
rhand -9.21387 -35.4971
rfingers 7.12502
rthumb 16.7406 -64.7953
lclavicle -1.02126e-014 4.70126e-014
lhumerus -2.80978 -25.9363 89.818
lradius 111.39
lwrist 9.57633
lhand -32.307 -22.1431
lfingers 7.12502
lthumb -5.54514 7.76434
rfemur -3.20534 21.8094 26.4858
rtibia 6.71378
rfoot -12.8901 -22.3314
rtoes -0.121209
lfemur 8.29362 -42.3366 -12.8722
ltibia -4.40621
lfoot -19.5729 49.9868
ltoes 8.37713
120
root 0.688126 17.4165 8.82515 5.82614 -1.6231 -9.12246
lowerback -3.77034 0.426131 6.75865
upperback -9.00601 0.763252 2.5933
thorax -7.3112 0.0185893 -1.0617
lowerneck -3.69898 -4.43194 -3.43316
upperneck 30.6022 -7.70576 5.85103
head 10.7905 -3.33729 1.91509
rclavicle -5.71506e-015 -6.85807e-015
rhumerus 0.446604 32.3641 -84.8642
rradius 110.841
rwrist 4.88734
rhand -10.139 -35.2181
rfingers 7.12502
rthumb 15.8498 -64.5894
lclavicle -5.71506e-015 -6.85807e-015
lhumerus -1.67588 -26.4756 89.4914
lradius 111.743
lwrist 9.30348
lhand -32.3191 -22.4614
lfingers 7.12502
lthumb -5.55681 7.44572
rfemur -3.16278 21.7947 26.5347
rtibia 6.88202
rfoot -12.9237 -22.1713
rtoes -0.358872
lfemur 8.45898 -41.9802 -12.9525
ltibia -4.38709
lfoot -19.6245 49.7983
ltoes 8.32481
121
root 0.689712 17.4164 8.83673 5.75077 -1.79158 -9.09251
lowerback -4.28055 0.419565 6.60069
upperback -8.76465 0.695186 2.68635
thorax -6.75703 0.0174538 -0.876544
lowerneck -3.79435 -4.34378 -3.73083
upperneck 30.8442 -7.68309 6.2894
head 10.9335 -3.30619 2.12881
rclavicle 8.19987e-016 9.74045e-015
rhumerus 2.35097 32.9448 -84.1636
rradius 111.18
rwrist 5.52505
rhand -10.8763 -35.004
rfingers 7.12502
rthumb 15.1397 -64.4302
lclavicle 8.19987e-016 9.74045e-015
lhumerus 0.22132 -26.5108 88.8661
lradius 112.234
lwrist 9.15903
lhand -32.1793 -22.3414
lfingers 7.12502
lthumb -5.42185 7.56924
rfemur -3.09838 21.8217 26.5329
rtibia 6.99198
rfoot -12.9502 -22.0813
rtoes -0.596671
lfemur 8.61898 -41.705 -13.0827
ltibia -4.38971
lfoot -19.5089 49.708
ltoes 7.9521
122
root 0.691264 17.4165 8.84736 5.70437 -1.93619 -9.04286
lowerback -4.3561 0.477388 6.58629
upperback -8.86246 0.767842 2.62438
thorax -6.81494 0.0488378 -0.933236
lowerneck -3.60032 -4.30039 -4.10486
upperneck 31.241 -7.82202 7.01385
head 11.1084 -3.33188 2.45488
rclavicle -1.83627e-014 4.02539e-014
rhumerus 3.15546 33.2925 -84.1207
rradius 111.622
rwrist 6.06696
rhand -11.5332 -34.6543
rfingers 7.12502
rthumb 14.5068 -64.1272
lclavicle -1.83627e-014 4.02539e-014
lhumerus 1.27855 -26.8662 88.5651
lradius 112.961
lwrist 9.13644
lhand -31.9715 -22.3507
lfingers 7.12502
lthumb -5.2212 7.565
rfemur -3.06485 21.8643 26.4934
rtibia 7.09363
rfoot -13.0193 -22.0104
rtoes -0.634983
lfemur 8.66302 -41.3417 -13.139
ltibia -4.38757
lfoot -19.1568 49.5462
ltoes 7.42037
123
root 0.693742 17.4165 8.85754 5.66358 -2.04722 -8.95699
lowerback -3.80805 0.59014 6.75122
upperback -9.3763 0.990584 2.41849
thorax -7.67918 0.107674 -1.24308
lowerneck -3.64794 -4.70999 -3.49938
upperneck 32.0708 -8.25443 5.90511
head 11.399 -3.56816 1.8975
rclavicle -2.23136e-014 3.02153e-014
rhumerus 2.80196 33.5371 -84.7342
rradius 112.195
rwrist 6.72155
rhand -12.3014 -34.3321
rfingers 7.12502
rthumb 13.7666 -63.8567
lclavicle -2.23136e-014 3.02153e-014
lhumerus 1.38982 -27.4888 88.7217
lradius 113.926
lwrist 9.29718
lhand -31.7145 -22.7405
lfingers 7.12502
lthumb -4.97309 7.18116
rfemur -3.01047 21.8875 26.4053
rtibia 7.14326
rfoot -13.0805 -21.9281
rtoes -0.746259
lfemur 8.74769 -41.1479 -13.3016
ltibia -4.36609
lfoot -19.2184 49.4413
ltoes 7.50796
124
root 0.696151 17.4158 8.86792 5.6096 -2.12111 -8.91457
lowerback -3.61836 0.591292 6.78242
upperback -9.56874 1.02145 2.41305
thorax -8.00091 0.108088 -1.26623
lowerneck -3.63918 -4.73693 -3.66156
upperneck 32.5068 -8.32024 5.93208
head 11.5862 -3.60774 1.9317
rclavicle -8.19987e-015 -6.26172e-015
rhumerus 2.95678 34.1984 -85.0797
rradius 112.817
rwrist 7.54278
rhand -13.0308 -34.4724
rfingers 7.12502
rthumb 13.0635 -64.0433
lclavicle -8.19987e-015 -6.26172e-015
lhumerus 1.82437 -27.7539 88.8308
lradius 115.012
lwrist 9.38014
lhand -31.7044 -22.9055
lfingers 7.12502
lthumb -4.96336 7.01638
rfemur -2.89521 21.8536 26.3784
rtibia 7.11382
rfoot -13.0879 -21.83
rtoes -0.920959
lfemur 8.93684 -41.1617 -13.5173
ltibia -4.35089
lfoot -19.5865 49.465
ltoes 7.88086
125
root 0.69779 17.414 8.87919 5.56086 -2.16734 -8.90623
lowerback -3.65435 0.54627 6.7616
upperback -9.59341 0.962733 2.48117
thorax -8.01295 0.0827363 -1.18032
lowerneck -3.92052 -4.73842 -3.80708
upperneck 32.9442 -8.33674 5.92923
head 11.8293 -3.61911 1.9497
rclavicle -5.86415e-015 2.8128e-014
rhumerus 3.3668 34.9908 -85.3554
rradius 113.401
rwrist 8.39429
rhand -13.5034 -34.6682
rfingers 7.12502
rthumb 12.608 -64.2677
lclavicle -5.86415e-015 2.8128e-014
lhumerus 2.34805 -27.9333 88.9248
lradius 116.172
lwrist 9.26094
lhand -31.7717 -23.1062
lfingers 7.12502
lthumb -5.02826 6.81417
rfemur -2.75069 21.7934 26.396
rtibia 7.03383
rfoot -13.0704 -21.7323
rtoes -0.946521
lfemur 9.13131 -41.196 -13.6931
ltibia -4.34127
lfoot -19.7071 49.5203
ltoes 7.96812
126
root 0.698164 17.4123 8.88927 5.53546 -2.21147 -8.94627
lowerback -3.70278 0.521248 6.80582
upperback -9.6041 0.928839 2.5367
thorax -8.00058 0.0652163 -1.14455
lowerneck -4.23619 -4.73926 -3.83916
upperneck 33.3252 -8.35047 5.88748
head 12.0516 -3.61996 1.93246
rclavicle -3.95085e-015 8.94531e-015
rhumerus 3.75382 35.7246 -85.72
rradius 113.934
rwrist 9.03327
rhand -13.8125 -34.6714
rfingers 7.12502
rthumb 12.3099 -64.2891
lclavicle -3.95085e-015 8.94531e-015
lhumerus 2.84168 -28.1862 89.0259
lradius 117.371
lwrist 8.97606
lhand -31.7267 -23.7949
lfingers 7.12502
lthumb -4.98481 6.1265
rfemur -2.63866 21.8174 26.4704
rtibia 6.96405
rfoot -13.0639 -21.7058
rtoes -0.819388
lfemur 9.32655 -41.3145 -13.7947
ltibia -4.36643
lfoot -19.8178 49.6412
ltoes 8.11915
127
root 0.697747 17.4114 8.89547 5.53975 -2.25162 -9.06227
lowerback -3.8975 0.504069 6.89429
upperback -9.49366 0.886376 2.62981
thorax -7.77029 0.0499511 -1.09424
lowerneck -4.52913 -4.73681 -3.80672
upperneck 33.4327 -8.32067 5.7745
head 12.147 -3.60643 1.88025
rclavicle -3.8763e-015 2.127e-014
rhumerus 4.29318 36.4727 -86.0511
rradius 114.451
rwrist 9.49265
rhand -13.9805 -34.7118
rfingers 7.12502
rthumb 12.1479 -64.3391
lclavicle -3.8763e-015 2.127e-014
lhumerus 3.53922 -28.396 89.0474
lradius 118.534
lwrist 8.35649
lhand -31.9139 -24.1764
lfingers 7.12502
lthumb -5.16564 5.74065
rfemur -2.59501 21.8854 26.6213
rtibia 6.93802
rfoot -13.0792 -21.7089
rtoes -0.721796
lfemur 9.48559 -41.5485 -13.7863
ltibia -4.38948
lfoot -20.2737 49.8291
ltoes 8.6672
128
root 0.698341 17.4101 8.90009 5.55491 -2.28911 -9.1206
lowerback -4.29311 0.443655 6.85732
upperback -9.24597 0.759533 2.78389
thorax -7.27854 0.0136761 -0.910184
lowerneck -4.82982 -4.69675 -3.79758
upperneck 33.3497 -8.20013 5.62014
head 12.1577 -3.5628 1.82559
rclavicle -8.58501e-015 3.13583e-014
rhumerus 5.01405 37.4256 -86.2485
rradius 114.996
rwrist 9.79227
rhand -14.1891 -34.7977
rfingers 7.12502
rthumb 11.9468 -64.4368
lclavicle -8.58501e-015 3.13583e-014
lhumerus 4.42719 -28.3911 89.0222
lradius 119.617
lwrist 7.43624
lhand -32.1553 -24.953
lfingers 7.12502
lthumb -5.39872 4.95824
rfemur -2.58396 21.8812 26.6827
rtibia 6.92066
rfoot -13.077 -21.6536
rtoes -0.770348
lfemur 9.61343 -41.7987 -13.848
ltibia -4.39
lfoot -20.7221 50.0479
ltoes 9.15949
